<svg class="svgsprite" xmlns="http://www.w3.org/2000/svg" xmlns:xlink="http://www.w3.org/1999/xlink"><symbol viewBox="0 0 8 18" id="ico-info" xmlns="http://www.w3.org/2000/svg"><path d="M6.998 14.218h-.6V6.03c0-.348-.268-.63-.6-.63h-4.8c-.331 0-.6.282-.6.63v2.52c0 .348.269.63.6.63h.6v5.04h-.6c-.331 0-.6.281-.6.63v2.519c0 .348.269.63.6.63h6c.332 0 .6-.282.6-.63v-2.52c0-.348-.268-.63-.6-.63zm-.6 2.52h-4.8v-1.26h.6c.332 0 .6-.282.6-.63v-6.3c0-.347-.268-.629-.6-.629h-.6v-1.26h3.6v8.19c0 .347.27.629.6.629h.6v1.26zM4.448 4.5c1.241 0 2.25-1.01 2.25-2.25S5.69 0 4.448 0c-1.24 0-2.25 1.01-2.25 2.25s1.01 2.25 2.25 2.25zm0-3.375c.62 0 1.125.504 1.125 1.125 0 .62-.504 1.125-1.125 1.125-.62 0-1.125-.505-1.125-1.125s.505-1.125 1.125-1.125z"/></symbol></svg>