<svg width="8" height="18" viewBox="0 0 8 18" xmlns="http://www.w3.org/2000/svg">
<path d="M6.99844 14.2182H6.39844V6.02922C6.39844 5.68129 6.12984 5.39931 5.79844 5.39931H0.998437C0.667031 5.39931 0.398438 5.68129 0.398438 6.02922V8.5489C0.398438 8.89683 0.667031 9.17882 0.998437 9.17882H1.59844V14.2182H0.998437C0.667031 14.2182 0.398438 14.5002 0.398438 14.8481V17.3678C0.398438 17.7157 0.667031 17.9977 0.998437 17.9977H6.99844C7.32984 17.9977 7.59844 17.7157 7.59844 17.3678V14.8481C7.59844 14.5002 7.32984 14.2182 6.99844 14.2182ZM6.39844 16.7378H1.59844V15.478H2.19844C2.52984 15.478 2.79844 15.196 2.79844 14.8481V8.5489C2.79844 8.20097 2.52984 7.91898 2.19844 7.91898H1.59844V6.65914H5.19844V14.8481C5.19844 15.196 5.46727 15.478 5.79844 15.478H6.39844V16.7378Z"/>
<path d="M4.44844 4.49942C5.68901 4.49942 6.69844 3.49013 6.69844 2.24971C6.69844 1.00929 5.68901 0 4.44844 0C3.20786 0 2.19844 1.00929 2.19844 2.24971C2.19844 3.49013 3.20786 4.49942 4.44844 4.49942ZM4.44844 1.12486C5.06873 1.12486 5.57344 1.6295 5.57344 2.24971C5.57344 2.86992 5.06873 3.37457 4.44844 3.37457C3.82815 3.37457 3.32344 2.86992 3.32344 2.24971C3.32344 1.6295 3.82815 1.12486 4.44844 1.12486Z"/>
</svg>
